<?xml version="1.0" encoding="utf-8"?>
<!-- Generator: Adobe Illustrator 25.4.1, SVG Export Plug-In . SVG Version: 6.00 Build 0)  -->
<svg version="1.0" id="Capa_1" xmlns="http://www.w3.org/2000/svg" xmlns:xlink="http://www.w3.org/1999/xlink" x="0px" y="0px"
	 viewBox="0 0 841.89 311.81" style="enable-background:new 0 0 841.89 311.81;" xml:space="preserve">
<style type="text/css">
	.st0{clip-path:url(#SVGID_00000174574729278817753310000014684949864064856254_);}
	.st1{clip-path:url(#SVGID_00000074411494345327990550000004109184461209650584_);}
	.st2{clip-path:url(#SVGID_00000096781064296229688500000007534601163086167213_);fill:#6EBC7E;}
	.st3{clip-path:url(#SVGID_00000096781064296229688500000007534601163086167213_);fill:#6060A8;}
	.st4{clip-path:url(#SVGID_00000096781064296229688500000007534601163086167213_);fill:#43B2BE;}
</style>
<g>
	<defs>
		<rect id="SVGID_1_" width="841.89" height="311.81"/>
	</defs>
	<clipPath id="SVGID_00000136390748132316500620000015120593461078163847_">
		<use xlink:href="#SVGID_1_"  style="overflow:visible;"/>
	</clipPath>
	<g style="clip-path:url(#SVGID_00000136390748132316500620000015120593461078163847_);">
		<defs>
			<rect id="SVGID_00000155110145167756463800000016536428207599501699_" x="7.13" width="737.5" height="311.81"/>
		</defs>
		<clipPath id="SVGID_00000036253035990515722810000007156456438934046092_">
			<use xlink:href="#SVGID_00000155110145167756463800000016536428207599501699_"  style="overflow:visible;"/>
		</clipPath>
		<g style="clip-path:url(#SVGID_00000036253035990515722810000007156456438934046092_);">
			<defs>
				<rect id="SVGID_00000085945579202416885550000017383497634119289226_" x="7.13" y="-26.19" width="737.5" height="368.75"/>
			</defs>
			<clipPath id="SVGID_00000146457428739014670840000006801373327156512656_">
				<use xlink:href="#SVGID_00000085945579202416885550000017383497634119289226_"  style="overflow:visible;"/>
			</clipPath>
			<g style="clip-path:url(#SVGID_00000146457428739014670840000006801373327156512656_);">
				
					<image style="overflow:visible;" width="3000" height="1500" xlink:href="1726CF3E1284F371.png"  transform="matrix(0.2458 0 0 0.2458 7.1343 -26.1905)">
				</image>
			</g>
		</g>
	</g>
	<g style="clip-path:url(#SVGID_00000136390748132316500620000015120593461078163847_);">
		<defs>
			<rect id="SVGID_00000164515170843687177240000008359889908447909006_" width="841.89" height="311.81"/>
		</defs>
		<clipPath id="SVGID_00000092448140251974886920000014555051896758753198_">
			<use xlink:href="#SVGID_00000164515170843687177240000008359889908447909006_"  style="overflow:visible;"/>
		</clipPath>
		<path style="clip-path:url(#SVGID_00000092448140251974886920000014555051896758753198_);fill:#6EBC7E;" d="M770.9,162.68h-11.68
			c-2.52,0-4.57-2.05-4.57-4.57v-11.69c0-2.52,2.05-4.57,4.57-4.57h11.68c2.52,0,4.57,2.04,4.57,4.57v11.69
			C775.47,160.63,773.43,162.68,770.9,162.68"/>
		<path style="clip-path:url(#SVGID_00000092448140251974886920000014555051896758753198_);fill:#6060A8;" d="M805.85,162.7h-10.29
			c-5.53,0-10.01-4.48-10.01-10.01v-48.66c0-5.53,4.48-10.01,10.01-10.01h10.29c5.53,0,10.01,4.48,10.01,10.01v48.66
			C815.87,158.22,811.38,162.7,805.85,162.7"/>
		<path style="clip-path:url(#SVGID_00000092448140251974886920000014555051896758753198_);fill:#43B2BE;" d="M767.81,129.72h-19.58
			c-4.23,0-7.66-3.43-7.66-7.66v-19.59c0-4.23,3.43-7.66,7.66-7.66h19.58c4.23,0,7.66,3.43,7.66,7.66v19.59
			C775.47,126.29,772.04,129.72,767.81,129.72"/>
	</g>
</g>
</svg>
